# xmcd
#
# Track frame offsets:
#	150
#	16380
#	31027
#	51675
#	65138
#	76125
#
# Disc length: 1193 seconds
#
# Revision: 1
# Processed by: cddbd v1.5.2PL0 Copyright (c) Steve Scherf et al.
# Submitted via: audiograbber 1.83.01
#
DISCID=4904a706
DTITLE=Selective - Selective (Shawn Forster)
DYEAR=1998
DGENRE=Country
TTITLE0=How I Feel About You - Shawn Forster
TTITLE1=When She Gets Though With You - Double Trouble
TTITLE2=Piece Of My Heart - Steve Peconi
TTITLE3=I´m Going Under Cause You´re Under Me - Russell Womble
TTITLE4=I´ve Been Missing You Fine - Vicki Lynn
TTITLE5=I Just Don´t Care Anymore - Vicki Lynn
EXTD=
EXTT0=
EXTT1=
EXTT2=
EXTT3=
EXTT4=
EXTT5=
PLAYORDER=
